<svg width="17" height="17" viewBox="0 0 17 17" fill="none" xmlns="http://www.w3.org/2000/svg">
<path fill-rule="evenodd" clip-rule="evenodd" d="M3.90123 1.12271L2.77853 0L0 2.77855L1.1227 3.90126L3.90123 1.12271ZM13.0988 1.12271L14.2215 0L17 2.77855L15.8773 3.90126L13.0988 1.12271ZM8.5 16.4387C4.11561 16.4387 0.561352 12.8844 0.561352 8.50005C0.561352 4.11566 4.11561 0.561417 8.5 0.561417C12.8844 0.561417 16.4387 4.11566 16.4387 8.50005C16.4387 12.8844 12.8844 16.4387 8.5 16.4387ZM8.5 14.851C12.0075 14.851 14.8509 12.0075 14.8509 8.50002C14.8509 4.99249 12.0075 2.14908 8.5 2.14908C4.99248 2.14908 2.14907 4.99249 2.14907 8.50002C2.14907 12.0075 4.99248 14.851 8.5 14.851ZM12.4693 7.70623H9.29387V3.73691H7.70614V9.29396H12.4693V7.70623Z" fill="#CACACA"/>
</svg>
