<svg width="48" height="43" viewBox="0 0 48 43" fill="none" xmlns="http://www.w3.org/2000/svg">
<path d="M47 20.3482C47 21.4292 46.8996 22.4864 46.708 23.5099C45.6002 19.6904 43.1926 16.4448 40.011 14.3122C40.7921 16.5127 41.2183 18.8877 41.2183 21.3652C41.2183 27.344 38.7369 32.7283 34.7724 36.495C31.8272 39.2927 28.0632 41.1981 23.8907 41.7901C23.2328 41.8836 22.5643 41.9441 21.8878 41.9705C21.6295 41.9805 21.37 41.9857 21.1092 41.9857C10.0033 41.9857 1 32.7534 1 21.3652C1 9.97691 10.0033 0.744629 21.1092 0.744629C22.0266 0.744629 22.9298 0.807812 23.8147 0.929847C16.0614 4.29448 10.622 12.1675 10.622 21.3435C10.622 21.4158 10.6224 21.4881 10.6233 21.5599C10.6224 21.6101 10.622 21.6607 10.622 21.7114C10.622 21.9974 10.633 22.2809 10.6541 22.5613C10.9031 25.8229 12.5709 28.676 15.0254 30.4715C16.3184 31.4175 17.8297 32.0701 19.4667 32.3341C20.0018 32.4202 20.5504 32.4652 21.1092 32.4652C26.901 32.4652 31.5963 27.6504 31.5963 21.7114C31.5963 17.7045 29.4592 14.2092 26.2899 12.3592C24.7617 11.4673 22.9935 10.9575 21.1092 10.9575C19.5431 10.9575 18.0567 11.3098 16.7223 11.9412C19.5418 7.00349 24.7693 3.68733 30.7523 3.68733C31.0013 3.68733 31.249 3.69295 31.495 3.70464C40.1236 4.10277 47 11.402 47 20.3482Z" fill="white" stroke="white" stroke-miterlimit="10"/>
</svg>
